<svg id="Layer_1" data-name="Layer 1" xmlns="http://www.w3.org/2000/svg" viewBox="0 0 260.65 50.02"><defs><style>.cls-1{fill:#5aa5e1;}.cls-2{fill:#000;}</style></defs><title>victron-logo-footer</title><path class="cls-1" d="M16.81,2.55A10.3,10.3,0,0,0,7,4.65s-5.9,4-7,20.6c0,0-.3,2.8,2.1,3.2,0,0,2.5.5,2.8-1.6s.3-12.6,4.9-18a3.53,3.53,0,0,1,1.7-1.2A10.73,10.73,0,0,0,14,5a8.14,8.14,0,0,1,2.8-2.4"/><path class="cls-1" d="M25.61,2.15a10.33,10.33,0,0,0-9,2.2s-5.5,3.4-6.9,16.9a27.9,27.9,0,0,0-.2,5,2.35,2.35,0,0,0,2.2,2.1s2.5.2,2.6-2.1l.2-3.2s.4-9,4-13.5l.9.7a16.74,16.74,0,0,1,6.2-8.1Z"/><path class="cls-1" d="M34.51,2.15a11,11,0,0,0-10,3.2s-4.2,3.7-5.4,13c0,0-.5,5-.6,7.4a2.59,2.59,0,0,0,2.2,2.6,2.35,2.35,0,0,0,2.5-2.2V26s.2-11.3,4.4-16.5l1,.6a17.24,17.24,0,0,1,5.9-7.9Z"/><path class="cls-1" d="M41.11,2.05a11,11,0,0,0-9.3,5.7s-4,5.8-4,17.6c0,0-.2,2.8,2,3.1a2.42,2.42,0,0,0,2.6-2.4v-.4S32.51,14,37,9.25c0,0,4,4.7,4.3,15.9,0,0,.1,7.7,1.6,11.9a53.88,53.88,0,0,0,1.5-11.3,2.52,2.52,0,0,1,.9-2s.7-.3.5-1.5c0,0-1-9.7-4.2-15.3,0,0,6.9-.5,8.2,13.3a5.68,5.68,0,0,0,1.1,3.3,2.52,2.52,0,0,1,.9,2,44.64,44.64,0,0,1-.4,8.2,7.39,7.39,0,0,0,.5,3.3,26.85,26.85,0,0,0,1.3-9.3s-.2-3.7,1.6-5c0,0-.1-10.5-4.3-16.2a11.29,11.29,0,0,0-9.4-4.5Z"/><path class="cls-1" d="M61.71,49.35a10.05,10.05,0,0,0,9.8-2.1s5.9-4,7-20.6c0,0,.3-2.8-2.1-3.2,0,0-2.5-.5-2.8,1.6s-.3,12.6-4.9,18a3.53,3.53,0,0,1-1.7,1.2,10.73,10.73,0,0,0-2.5,2.7,9.18,9.18,0,0,1-2.8,2.4"/><path class="cls-1" d="M52.81,49.75a10.33,10.33,0,0,0,9-2.2s5.5-3.4,6.9-16.9a27.9,27.9,0,0,0,.2-5,2.27,2.27,0,0,0-2.2-2.1s-2.5-.2-2.6,2.1l-.2,3.2s-.4,9-4,13.5l-.9-.7a16,16,0,0,1-6.2,8.1Z"/><path class="cls-1" d="M44,49.75a11,11,0,0,0,10-3.2s4.2-3.7,5.4-13c0,0,.5-5,.6-7.4a2.59,2.59,0,0,0-2.2-2.6,2.35,2.35,0,0,0-2.5,2.2V26s-.1,11.3-4.4,16.5l-1-.6a17.76,17.76,0,0,1-5.9,7.9Z"/><path class="cls-1" d="M37.31,49.85a11,11,0,0,0,9.3-5.7s4-5.8,4-17.6c0,0,.2-2.8-2-3.1a2.42,2.42,0,0,0-2.6,2.4v.4s-.1,11.7-4.6,16.4c0,0-4-4.7-4.3-15.9,0,0-.1-7.7-1.6-11.9A53.88,53.88,0,0,0,34,26.15a2.52,2.52,0,0,1-.9,2s-.7.3-.5,1.5c0,0,1,9.7,4.2,15.3,0,0-6.9.5-8.2-13.3a5.68,5.68,0,0,0-1.1-3.3,2.52,2.52,0,0,1-.9-2,44.64,44.64,0,0,1,.4-8.2,9.12,9.12,0,0,0-.5-3.3,24.59,24.59,0,0,0-1.2,9.3s.2,3.7-1.6,5c0,0,.2,10.5,4.3,16.2a11.11,11.11,0,0,0,9.3,4.5Z"/><path class="cls-2" d="M86.51,15.55,89,8a2,2,0,0,1,2.6-1.4c.1,0,.3.1.4.1a2.16,2.16,0,0,1,1,2.9l-4.3,10.5c-.6,1.6-1.7,2.2-3.2,1.6a2.63,2.63,0,0,1-1.5-1.6l-4.2-10.6a2.19,2.19,0,0,1,4-1.8.35.35,0,0,0,.1.2l2.6,7.7Z"/><path class="cls-2" d="M94.41,8.55a2,2,0,0,1,.6-1.5,2.08,2.08,0,0,1,3,0h0a2.2,2.2,0,0,1,.6,1.5v11.2a2.14,2.14,0,0,1-2.1,2.2h0a2.22,2.22,0,0,1-2.2-2.2V8.55Zm.4-7.8a2.42,2.42,0,0,1,3.5,0,2.42,2.42,0,0,1,0,3.5,2.42,2.42,0,0,1-3.5,0,2.14,2.14,0,0,1-.8-1.7,2.5,2.5,0,0,1,.8-1.8Z"/><path class="cls-2" d="M109.11,6.35c3.2.4,4.3,1.8,3.9,3.2a1.75,1.75,0,0,1-1.8,1.5h-.4l-.2-.1-.4-.1-.3-.1-.4-.1c-2.6-.8-4.7.7-4.7,3.6s2.2,4.4,5,3.4l.5-.2.2-.1a1.83,1.83,0,0,1,2.4.9.9.9,0,0,1,.1.5c.2,1.1-.6,2.1-2.6,2.7a4.15,4.15,0,0,1-1.6.3,7.82,7.82,0,0,1-1.2-15.6,4.42,4.42,0,0,0,1.5.2Z"/><path class="cls-2" d="M116.31,6.55V4.05a2.1,2.1,0,0,1,4.2,0h0v2.5h1.3a2,2,0,0,1,1.4.6,1.82,1.82,0,0,1,0,2.7h0a2,2,0,0,1-1.4.6h-1.3v9.3a2,2,0,0,1-.6,1.5,2.17,2.17,0,0,1-3,0h0a2.2,2.2,0,0,1-.6-1.5v-9.3h-.8a2.39,2.39,0,0,1-1.4-.5,1.88,1.88,0,0,1-.1-2.6l.1-.1a2,2,0,0,1,1.4-.6Z"/><path class="cls-2" d="M124.61,8.45a2.2,2.2,0,0,1,2.2-2.1c1.3-.1,2.2.7,2.1,1.5v.2c.1-.1.2-.3.4-.4,1.6-1.8,3.5-1.8,4.4-.5a1.88,1.88,0,0,1-.3,2.6c-.1.1-.3.2-.4.3l-.2.1-.6.2a7.54,7.54,0,0,0-1.3.6c-1.4.8-1.8,1.5-1.8,2.2v6.4a2.22,2.22,0,0,1-2.2,2.2h0a2.05,2.05,0,0,1-2.1-2.1h0l-.2-11.2Z"/><path class="cls-2" d="M134.91,10a7.44,7.44,0,0,1,6.3-3.7,8,8,0,0,1,8.3,7.4,7.86,7.86,0,1,1-15.7.9v-.4a8.77,8.77,0,0,1,1.1-4.2Zm3.3,4.8c.4,2.6,1.9,3.7,3.7,3.3,1.2-.2,2.2-1.4,2.4-3.3a3.3,3.3,0,0,0,0-1.4,3.32,3.32,0,0,0-2.4-3.2c-1.8-.4-3.4.7-3.7,3.2v1.4Z"/><path class="cls-2" d="M150.51,8.55a2.37,2.37,0,0,1,2.2-2.2,1.61,1.61,0,0,1,1.9,1.2V8a4.69,4.69,0,0,1,2.9-1.6,7.39,7.39,0,0,1,2.1,0,5,5,0,0,1,4.6,5.4h0v8a2.16,2.16,0,0,1-4.3.3v-7.6a2.5,2.5,0,0,0-.8-1.8,2.42,2.42,0,0,0-3.5,0h0a2.41,2.41,0,0,0-.7,1.8v7.3a2.16,2.16,0,0,1-4.3,0V8.55Z"/><path class="cls-2" d="M178.21,15.45a3.48,3.48,0,0,0,.7,1.5c1.1,1.4,3.2,1.7,5.6.5,1.4-.8,1.8-.8,2.5-.5a1.59,1.59,0,0,1,.9.9c.6,1.5-1.3,4.1-6.5,4.1a7.69,7.69,0,0,1-8-7.3,9.86,9.86,0,0,1,.3-2.4,7.36,7.36,0,0,1,5.9-5.8,7.27,7.27,0,0,1,8,4.3,7.06,7.06,0,0,1,.6,2.4c.2,1.7-.4,2.4-1.8,2.4Zm5.9-2.7a.37.37,0,0,0-.1-.3c-.4-2-1.9-3-3.5-2.6a3.25,3.25,0,0,0-2.3,2.5v.3h5.9Z"/><path class="cls-2" d="M189.91,8.55a2.36,2.36,0,0,1,2.1-2.2,1.61,1.61,0,0,1,1.9,1.2V8a4.69,4.69,0,0,1,2.9-1.6,7.39,7.39,0,0,1,2.1,0,5,5,0,0,1,4.6,5.4h0v8a2.16,2.16,0,0,1-4.3.3v-7.6a2.5,2.5,0,0,0-.8-1.8,2.42,2.42,0,0,0-3.5,0h0a2.41,2.41,0,0,0-.7,1.8v7.3a2.16,2.16,0,0,1-4.3,0Z"/><path class="cls-2" d="M210.11,15.45a3.48,3.48,0,0,0,.7,1.5c1.1,1.4,3.2,1.7,5.6.5,1.4-.8,1.8-.8,2.5-.5a1.59,1.59,0,0,1,.9.9c.6,1.5-1.3,4.1-6.5,4.1a7.69,7.69,0,0,1-8-7.3,9.86,9.86,0,0,1,.3-2.4,7.36,7.36,0,0,1,5.9-5.8,7.27,7.27,0,0,1,8,4.3,7.06,7.06,0,0,1,.6,2.4c.2,1.7-.4,2.4-1.8,2.4Zm5.9-2.7a.37.37,0,0,0-.1-.3c-.5-2-1.9-3-3.5-2.6a3.25,3.25,0,0,0-2.3,2.5.37.37,0,0,1-.1.3h6Z"/><path class="cls-2" d="M221.81,8.45a2.2,2.2,0,0,1,2.2-2.1c1.3-.1,2.2.7,2.1,1.5v.2c.1-.1.2-.3.4-.4,1.7-1.8,3.5-1.8,4.4-.5a1.88,1.88,0,0,1-.3,2.6,2.19,2.19,0,0,1-.5.3l-.2.1-.6.2a7.54,7.54,0,0,0-1.3.6c-1.4.8-1.8,1.5-1.8,2.2v6.4a2.2,2.2,0,0,1-4.4,0V8.45Z"/><path class="cls-2" d="M241.61,7.85a1.67,1.67,0,0,1,1.8-1.5h.2a2.37,2.37,0,0,1,2.2,2.2v11.2c0,5.6-3.3,8.6-9.1,8a9,9,0,0,1-3.2-.9c-2.1-1-2.4-2.4-1.4-3.5a2.05,2.05,0,0,1,2.2-.5h0l.9.4a1.42,1.42,0,0,0,.6.2c3.7,1.3,5.8-.2,5.8-3v-.6c-1.6,2.3-5.5,2.7-8.3,0a8.41,8.41,0,0,1-2-7.7,7.91,7.91,0,0,1,1.1-2.9c2.4-3.8,7.2-4.2,9.4-1.5l-.2.1Zm-5.4,9.2a2.85,2.85,0,0,0,4,.4c.2-.2.4-.3.5-.5a5,5,0,0,0,.8-2.7c0-1.9-.7-3.1-1.8-3.7-1.9-.9-4,.3-4.3,2.9,0,.3-.1.5-.1.8A4.68,4.68,0,0,0,236.21,17.05Z"/><path class="cls-2" d="M248.11,6.55a2.06,2.06,0,0,1,2.8,1.1c0,.1.1.2.1.3l2.7,7.2,2.7-7.2a2.14,2.14,0,0,1,4.2.8,1.42,1.42,0,0,1-.2.6l-7,17.1a2.2,2.2,0,0,1-2.7,1.6c-.1,0-.2-.1-.3-.1a2.18,2.18,0,0,1-1.2-2.8v-.1l2-4.6-4.6-11.2a2.7,2.7,0,0,1,1.5-2.7Z"/><path class="cls-2" d="M109.81,28.55c.6,0,1,.2,1,.8s-.4.9-1.1.9h-.6v-1.6a2,2,0,0,1,.7-.1Zm1.5,4.4a1.61,1.61,0,0,0,.5-1.1,1.69,1.69,0,0,0-.3-1,1.39,1.39,0,0,0-1-.5c.2-.1.5-.2.6-.4a.91.91,0,0,0,.3-.7,1.16,1.16,0,0,0-.4-1,1.92,1.92,0,0,0-1.2-.4h-1.4v5.5H110a1.68,1.68,0,0,0,1.3-.4Zm-.5-2a1.22,1.22,0,0,1,0,1.6,1.69,1.69,0,0,1-1,.3h-.6v-2.1h.6a3.55,3.55,0,0,1,1,.2Z"/><polygon class="cls-2" points="122.81 33.45 119.61 33.45 119.61 27.95 120.31 27.95 120.31 32.75 122.81 32.75 122.81 33.45"/><path class="cls-2" d="M130.31,31.75V28h.7v3.7a1,1,0,0,0,1.1,1.1,1.61,1.61,0,0,0,.9-.3,1.22,1.22,0,0,0,.3-.9v-3.7h.7v3.8a1.9,1.9,0,0,1-.5,1.3,2.4,2.4,0,0,1-2.8,0,1.46,1.46,0,0,1-.4-1.2Z"/><polygon class="cls-2" points="146.71 28.65 144.21 28.65 144.21 30.15 146.01 30.15 146.01 30.75 144.21 30.75 144.21 32.75 146.61 32.75 146.61 33.45 143.41 33.45 143.41 27.95 146.71 27.95 146.71 28.65"/><path class="cls-2" d="M164.71,28.55c1,0,1.5.3,1.5,1s-.5,1.1-1.4,1.1h-.5v-2h.4Zm.2,2.8c1.4,0,2.1-.6,2.1-1.9,0-1.1-.8-1.6-2.4-1.6h-1v5.5h.7v-2.1l.6.1Z"/><path class="cls-2" d="M175.61,29.15a1.15,1.15,0,0,1,1.1-.6c1,0,1.6.7,1.6,2.1a2.93,2.93,0,0,1-.4,1.6,1.43,1.43,0,0,1-1.2.6,1.1,1.1,0,0,1-1-.6,2.93,2.93,0,0,1-.4-1.6,2,2,0,0,1,.3-1.5Zm-.6,3.6a2.09,2.09,0,0,0,1.6.8,1.88,1.88,0,0,0,1.7-.8,3.22,3.22,0,0,0,.6-2.1,3.61,3.61,0,0,0-.6-2,1.9,1.9,0,0,0-1.7-.7,2.09,2.09,0,0,0-1.6.8,3.63,3.63,0,0,0,0,4Z"/><polygon class="cls-2" points="192.61 27.95 190.91 33.55 190.71 33.55 189.41 29.75 188.21 33.55 187.91 33.55 186.21 27.95 187.01 27.95 188.11 31.75 189.31 27.95 189.61 27.95 190.71 31.75 191.91 27.95 192.61 27.95"/><polygon class="cls-2" points="203.41 28.65 200.91 28.65 200.91 30.15 202.71 30.15 202.71 30.75 200.91 30.75 200.91 32.75 203.31 32.75 203.31 33.45 200.11 33.45 200.11 27.95 203.41 27.95 203.41 28.65"/><path class="cls-2" d="M212.31,28.55a3.55,3.55,0,0,1,1,.2.78.78,0,0,1,.3.7,1.14,1.14,0,0,1-.3.8,1.8,1.8,0,0,1-1,.2h-.5v-1.8l.5-.1Zm1.1,2.4a2.18,2.18,0,0,0,.8-.5,1.61,1.61,0,0,0,.3-.9c0-1-.7-1.6-2-1.6h-1.4v5.5h.8v-2.4h.8l1.5,2.3h.9l-1.6-2.5Z"/></svg>